<?xml version="1.0" encoding="UTF-8" standalone="no"?><!-- Generator: Gravit.io -->
<svg xmlns="http://www.w3.org/2000/svg" style="isolation:isolate"
     viewBox="1389.75 484 1008.5 250" width="1008.5pt" height="250pt">
    <defs>
        <clipPath id="_clipPath_ZB79VTsiJ1XipWt2sUv2YCyAb66PSVTu">
            <rect x="1389.75" y="484" width="1008.5" height="250"/>
        </clipPath>
    </defs>
    <g clip-path="url(#_clipPath_ZB79VTsiJ1XipWt2sUv2YCyAb66PSVTu)">
        <rect x="1389.75" y="484" width="1008.5" height="250" style="fill:rgb(209,209,209)" fill-opacity="0"/>
        <clipPath id="_clipPath_sVR9M5jdMpZJGivFmbNcKp2c4yHgTxXy">
            <path d="M 1399.752 484 L 2388.248 484 C 2393.768 484 2398.25 488.482 2398.25 494.002 L 2398.25 723.998 C 2398.25 729.518 2393.768 734 2388.248 734 L 1399.752 734 C 1394.232 734 1389.75 729.518 1389.75 723.998 L 1389.75 494.002 C 1389.75 488.482 1394.232 484 1399.752 484 Z"
                  style="stroke:none;fill:#FFFFFF;stroke-miterlimit:10;"/>
        </clipPath>
        <g clip-path="url(#_clipPath_sVR9M5jdMpZJGivFmbNcKp2c4yHgTxXy)">
            <g>
                <path d=" M 1981.454 647.087 L 1981.454 647.087 L 1981.454 647.087 Q 1981.454 653.451 1977.998 656.817 L 1977.998 656.817 L 1977.998 656.817 Q 1974.542 660.183 1968.052 660.183 L 1968.052 660.183 L 1960.93 660.183 L 1960.93 634.484 L 1968.809 634.484 L 1968.809 634.484 Q 1974.806 634.484 1978.13 637.806 L 1978.13 637.806 L 1978.13 637.806 Q 1981.454 641.128 1981.454 647.087 Z  M 1978.288 647.193 L 1978.288 647.193 L 1978.288 647.193 Q 1978.288 642.166 1975.764 639.617 L 1975.764 639.617 L 1975.764 639.617 Q 1973.24 637.068 1968.263 637.068 L 1968.263 637.068 L 1963.919 637.068 L 1963.919 657.599 L 1967.56 657.599 L 1967.56 657.599 Q 1972.906 657.599 1975.597 654.971 L 1975.597 654.971 L 1975.597 654.971 Q 1978.288 652.343 1978.288 647.193 Z  M 1994.89 660.535 L 1994.89 660.535 L 1994.89 660.535 Q 1990.616 660.535 1988.145 657.933 L 1988.145 657.933 L 1988.145 657.933 Q 1985.674 655.332 1985.674 650.708 L 1985.674 650.708 L 1985.674 650.708 Q 1985.674 646.05 1987.969 643.308 L 1987.969 643.308 L 1987.969 643.308 Q 1990.265 640.566 1994.134 640.566 L 1994.134 640.566 L 1994.134 640.566 Q 1997.757 640.566 1999.867 642.948 L 1999.867 642.948 L 1999.867 642.948 Q 2001.977 645.33 2001.977 649.232 L 2001.977 649.232 L 2001.977 651.078 L 1988.699 651.078 L 1988.699 651.078 Q 1988.787 654.47 1990.414 656.228 L 1990.414 656.228 L 1990.414 656.228 Q 1992.041 657.986 1994.995 657.986 L 1994.995 657.986 L 1994.995 657.986 Q 1998.108 657.986 2001.151 656.685 L 2001.151 656.685 L 2001.151 659.287 L 2001.151 659.287 Q 1999.603 659.955 1998.223 660.245 L 1998.223 660.245 L 1998.223 660.245 Q 1996.842 660.535 1994.89 660.535 Z  M 1994.098 643.009 L 1994.098 643.009 L 1994.098 643.009 Q 1991.777 643.009 1990.396 644.521 L 1990.396 644.521 L 1990.396 644.521 Q 1989.016 646.033 1988.77 648.705 L 1988.77 648.705 L 1998.847 648.705 L 1998.847 648.705 Q 1998.847 645.945 1997.616 644.477 L 1997.616 644.477 L 1997.616 644.477 Q 1996.385 643.009 1994.098 643.009 Z  M 2014.587 660.183 L 2011.175 660.183 L 2003.859 640.917 L 2006.99 640.917 L 2011.14 652.343 L 2011.14 652.343 Q 2012.547 656.351 2012.793 657.546 L 2012.793 657.546 L 2012.934 657.546 L 2012.934 657.546 Q 2013.127 656.615 2014.156 653.688 L 2014.156 653.688 L 2014.156 653.688 Q 2015.185 650.761 2018.773 640.917 L 2018.773 640.917 L 2021.903 640.917 L 2014.587 660.183 L 2014.587 660.183 Z  M 2033.141 660.535 L 2033.141 660.535 L 2033.141 660.535 Q 2028.868 660.535 2026.397 657.933 L 2026.397 657.933 L 2026.397 657.933 Q 2023.926 655.332 2023.926 650.708 L 2023.926 650.708 L 2023.926 650.708 Q 2023.926 646.05 2026.221 643.308 L 2026.221 643.308 L 2026.221 643.308 Q 2028.516 640.566 2032.385 640.566 L 2032.385 640.566 L 2032.385 640.566 Q 2036.008 640.566 2038.118 642.948 L 2038.118 642.948 L 2038.118 642.948 Q 2040.229 645.33 2040.229 649.232 L 2040.229 649.232 L 2040.229 651.078 L 2026.951 651.078 L 2026.951 651.078 Q 2027.039 654.47 2028.665 656.228 L 2028.665 656.228 L 2028.665 656.228 Q 2030.292 657.986 2033.247 657.986 L 2033.247 657.986 L 2033.247 657.986 Q 2036.36 657.986 2039.402 656.685 L 2039.402 656.685 L 2039.402 659.287 L 2039.402 659.287 Q 2037.855 659.955 2036.474 660.245 L 2036.474 660.245 L 2036.474 660.245 Q 2035.093 660.535 2033.141 660.535 Z  M 2032.35 643.009 L 2032.35 643.009 L 2032.35 643.009 Q 2030.028 643.009 2028.648 644.521 L 2028.648 644.521 L 2028.648 644.521 Q 2027.267 646.033 2027.021 648.705 L 2027.021 648.705 L 2037.098 648.705 L 2037.098 648.705 Q 2037.098 645.945 2035.867 644.477 L 2035.867 644.477 L 2035.867 644.477 Q 2034.636 643.009 2032.35 643.009 Z  M 2048.125 632.832 L 2048.125 660.183 L 2045.206 660.183 L 2045.206 632.832 L 2048.125 632.832 L 2048.125 632.832 Z  M 2070.953 650.533 L 2070.953 650.533 L 2070.953 650.533 Q 2070.953 655.244 2068.579 657.889 L 2068.579 657.889 L 2068.579 657.889 Q 2066.205 660.535 2062.019 660.535 L 2062.019 660.535 L 2062.019 660.535 Q 2059.434 660.535 2057.429 659.322 L 2057.429 659.322 L 2057.429 659.322 Q 2055.424 658.109 2054.333 655.841 L 2054.333 655.841 L 2054.333 655.841 Q 2053.243 653.574 2053.243 650.533 L 2053.243 650.533 L 2053.243 650.533 Q 2053.243 645.822 2055.6 643.194 L 2055.6 643.194 L 2055.6 643.194 Q 2057.956 640.566 2062.142 640.566 L 2062.142 640.566 L 2062.142 640.566 Q 2066.187 640.566 2068.57 643.255 L 2068.57 643.255 L 2068.57 643.255 Q 2070.953 645.945 2070.953 650.533 Z  M 2056.268 650.533 L 2056.268 650.533 L 2056.268 650.533 Q 2056.268 654.224 2057.745 656.158 L 2057.745 656.158 L 2057.745 656.158 Q 2059.223 658.091 2062.089 658.091 L 2062.089 658.091 L 2062.089 658.091 Q 2064.956 658.091 2066.442 656.167 L 2066.442 656.167 L 2066.442 656.167 Q 2067.928 654.242 2067.928 650.533 L 2067.928 650.533 L 2067.928 650.533 Q 2067.928 646.859 2066.442 644.952 L 2066.442 644.952 L 2066.442 644.952 Q 2064.956 643.044 2062.054 643.044 L 2062.054 643.044 L 2062.054 643.044 Q 2059.187 643.044 2057.728 644.925 L 2057.728 644.925 L 2057.728 644.925 Q 2056.268 646.806 2056.268 650.533 Z  M 2085.04 660.535 L 2085.04 660.535 L 2085.04 660.535 Q 2083.158 660.535 2081.602 659.84 L 2081.602 659.84 L 2081.602 659.84 Q 2080.045 659.146 2078.99 657.705 L 2078.99 657.705 L 2078.779 657.705 L 2078.779 657.705 Q 2078.99 659.392 2078.99 660.904 L 2078.99 660.904 L 2078.99 668.832 L 2076.071 668.832 L 2076.071 640.917 L 2078.445 640.917 L 2078.849 643.554 L 2078.99 643.554 L 2078.99 643.554 Q 2080.116 641.972 2081.611 641.269 L 2081.611 641.269 L 2081.611 641.269 Q 2083.105 640.566 2085.04 640.566 L 2085.04 640.566 L 2085.04 640.566 Q 2088.874 640.566 2090.958 643.185 L 2090.958 643.185 L 2090.958 643.185 Q 2093.042 645.804 2093.042 650.533 L 2093.042 650.533 L 2093.042 650.533 Q 2093.042 655.279 2090.923 657.907 L 2090.923 657.907 L 2090.923 657.907 Q 2088.804 660.535 2085.04 660.535 Z  M 2084.618 643.044 L 2084.618 643.044 L 2084.618 643.044 Q 2081.663 643.044 2080.344 644.679 L 2080.344 644.679 L 2080.344 644.679 Q 2079.025 646.314 2078.99 649.882 L 2078.99 649.882 L 2078.99 650.533 L 2078.99 650.533 Q 2078.99 654.593 2080.344 656.342 L 2080.344 656.342 L 2080.344 656.342 Q 2081.699 658.091 2084.688 658.091 L 2084.688 658.091 L 2084.688 658.091 Q 2087.186 658.091 2088.601 656.07 L 2088.601 656.07 L 2088.601 656.07 Q 2090.017 654.048 2090.017 650.498 L 2090.017 650.498 L 2090.017 650.498 Q 2090.017 646.894 2088.601 644.969 L 2088.601 644.969 L 2088.601 644.969 Q 2087.186 643.044 2084.618 643.044 Z  M 2106.285 660.535 L 2106.285 660.535 L 2106.285 660.535 Q 2102.011 660.535 2099.54 657.933 L 2099.54 657.933 L 2099.54 657.933 Q 2097.069 655.332 2097.069 650.708 L 2097.069 650.708 L 2097.069 650.708 Q 2097.069 646.05 2099.365 643.308 L 2099.365 643.308 L 2099.365 643.308 Q 2101.66 640.566 2105.529 640.566 L 2105.529 640.566 L 2105.529 640.566 Q 2109.152 640.566 2111.262 642.948 L 2111.262 642.948 L 2111.262 642.948 Q 2113.372 645.33 2113.372 649.232 L 2113.372 649.232 L 2113.372 651.078 L 2100.094 651.078 L 2100.094 651.078 Q 2100.182 654.47 2101.809 656.228 L 2101.809 656.228 L 2101.809 656.228 Q 2103.436 657.986 2106.39 657.986 L 2106.39 657.986 L 2106.39 657.986 Q 2109.503 657.986 2112.546 656.685 L 2112.546 656.685 L 2112.546 659.287 L 2112.546 659.287 Q 2110.998 659.955 2109.618 660.245 L 2109.618 660.245 L 2109.618 660.245 Q 2108.237 660.535 2106.285 660.535 Z  M 2105.494 643.009 L 2105.494 643.009 L 2105.494 643.009 Q 2103.172 643.009 2101.791 644.521 L 2101.791 644.521 L 2101.791 644.521 Q 2100.411 646.033 2100.165 648.705 L 2100.165 648.705 L 2110.242 648.705 L 2110.242 648.705 Q 2110.242 645.945 2109.011 644.477 L 2109.011 644.477 L 2109.011 644.477 Q 2107.78 643.009 2105.494 643.009 Z  M 2127.143 640.566 L 2127.143 640.566 L 2127.143 640.566 Q 2128.427 640.566 2129.447 640.777 L 2129.447 640.777 L 2129.042 643.484 L 2129.042 643.484 Q 2127.846 643.22 2126.932 643.22 L 2126.932 643.22 L 2126.932 643.22 Q 2124.593 643.22 2122.931 645.119 L 2122.931 645.119 L 2122.931 645.119 Q 2121.269 647.017 2121.269 649.847 L 2121.269 649.847 L 2121.269 660.183 L 2118.35 660.183 L 2118.35 640.917 L 2120.759 640.917 L 2121.093 644.486 L 2121.234 644.486 L 2121.234 644.486 Q 2122.307 642.605 2123.819 641.585 L 2123.819 641.585 L 2123.819 641.585 Q 2125.331 640.566 2127.143 640.566 Z  M 1877.515 653.345 L 1877.515 653.345 L 1877.515 653.345 Q 1877.515 656.738 1875.053 658.636 L 1875.053 658.636 L 1875.053 658.636 Q 1872.591 660.535 1868.37 660.535 L 1868.37 660.535 L 1868.37 660.535 Q 1863.798 660.535 1861.335 659.357 L 1861.335 659.357 L 1861.335 656.474 L 1861.335 656.474 Q 1862.918 657.142 1864.782 657.529 L 1864.782 657.529 L 1864.782 657.529 Q 1866.647 657.916 1868.476 657.916 L 1868.476 657.916 L 1868.476 657.916 Q 1871.465 657.916 1872.978 656.782 L 1872.978 656.782 L 1872.978 656.782 Q 1874.49 655.648 1874.49 653.626 L 1874.49 653.626 L 1874.49 653.626 Q 1874.49 652.291 1873.954 651.438 L 1873.954 651.438 L 1873.954 651.438 Q 1873.418 650.585 1872.16 649.865 L 1872.16 649.865 L 1872.16 649.865 Q 1870.903 649.144 1868.335 648.23 L 1868.335 648.23 L 1868.335 648.23 Q 1864.747 646.947 1863.208 645.189 L 1863.208 645.189 L 1863.208 645.189 Q 1861.67 643.431 1861.67 640.601 L 1861.67 640.601 L 1861.67 640.601 Q 1861.67 637.63 1863.903 635.873 L 1863.903 635.873 L 1863.903 635.873 Q 1866.137 634.115 1869.812 634.115 L 1869.812 634.115 L 1869.812 634.115 Q 1873.646 634.115 1876.865 635.521 L 1876.865 635.521 L 1875.932 638.123 L 1875.932 638.123 Q 1872.749 636.787 1869.742 636.787 L 1869.742 636.787 L 1869.742 636.787 Q 1867.368 636.787 1866.031 637.806 L 1866.031 637.806 L 1866.031 637.806 Q 1864.694 638.826 1864.694 640.636 L 1864.694 640.636 L 1864.694 640.636 Q 1864.694 641.972 1865.187 642.825 L 1865.187 642.825 L 1865.187 642.825 Q 1865.679 643.677 1866.849 644.389 L 1866.849 644.389 L 1866.849 644.389 Q 1868.018 645.101 1870.428 645.962 L 1870.428 645.962 L 1870.428 645.962 Q 1874.473 647.404 1875.994 649.056 L 1875.994 649.056 L 1875.994 649.056 Q 1877.515 650.708 1877.515 653.345 Z  M 1888.56 658.126 L 1888.56 658.126 L 1888.56 658.126 Q 1889.334 658.126 1890.055 658.012 L 1890.055 658.012 L 1890.055 658.012 Q 1890.776 657.898 1891.198 657.775 L 1891.198 657.775 L 1891.198 660.007 L 1891.198 660.007 Q 1890.723 660.236 1889.8 660.385 L 1889.8 660.385 L 1889.8 660.385 Q 1888.876 660.535 1888.138 660.535 L 1888.138 660.535 L 1888.138 660.535 Q 1882.545 660.535 1882.545 654.646 L 1882.545 654.646 L 1882.545 643.185 L 1879.784 643.185 L 1879.784 641.779 L 1882.545 640.566 L 1883.776 636.453 L 1885.465 636.453 L 1885.465 640.917 L 1891.057 640.917 L 1891.057 643.185 L 1885.465 643.185 L 1885.465 654.523 L 1885.465 654.523 Q 1885.465 656.263 1886.291 657.195 L 1886.291 657.195 L 1886.291 657.195 Q 1887.118 658.126 1888.56 658.126 Z  M 1909.066 660.183 L 1906.903 660.183 L 1906.323 657.441 L 1906.182 657.441 L 1906.182 657.441 Q 1904.74 659.251 1903.306 659.893 L 1903.306 659.893 L 1903.306 659.893 Q 1901.873 660.535 1899.727 660.535 L 1899.727 660.535 L 1899.727 660.535 Q 1896.861 660.535 1895.234 659.058 L 1895.234 659.058 L 1895.234 659.058 Q 1893.607 657.582 1893.607 654.857 L 1893.607 654.857 L 1893.607 654.857 Q 1893.607 649.021 1902.946 648.74 L 1902.946 648.74 L 1906.217 648.634 L 1906.217 647.439 L 1906.217 647.439 Q 1906.217 645.171 1905.241 644.09 L 1905.241 644.09 L 1905.241 644.09 Q 1904.265 643.009 1902.119 643.009 L 1902.119 643.009 L 1902.119 643.009 Q 1899.71 643.009 1896.667 644.486 L 1896.667 644.486 L 1895.77 642.253 L 1895.77 642.253 Q 1897.195 641.48 1898.892 641.041 L 1898.892 641.041 L 1898.892 641.041 Q 1900.589 640.601 1902.295 640.601 L 1902.295 640.601 L 1902.295 640.601 Q 1905.742 640.601 1907.404 642.13 L 1907.404 642.13 L 1907.404 642.13 Q 1909.066 643.66 1909.066 647.035 L 1909.066 647.035 L 1909.066 660.183 L 1909.066 660.183 Z  M 1900.308 658.126 L 1900.308 658.126 L 1900.308 658.126 Q 1903.034 658.126 1904.59 656.632 L 1904.59 656.632 L 1904.59 656.632 Q 1906.147 655.138 1906.147 652.449 L 1906.147 652.449 L 1906.147 650.708 L 1903.227 650.832 L 1903.227 650.832 Q 1899.745 650.955 1898.206 651.913 L 1898.206 651.913 L 1898.206 651.913 Q 1896.667 652.871 1896.667 654.892 L 1896.667 654.892 L 1896.667 654.892 Q 1896.667 656.474 1897.626 657.3 L 1897.626 657.3 L 1897.626 657.3 Q 1898.584 658.126 1900.308 658.126 Z  M 1922.784 660.535 L 1922.784 660.535 L 1922.784 660.535 Q 1918.598 660.535 1916.303 657.959 L 1916.303 657.959 L 1916.303 657.959 Q 1914.008 655.384 1914.008 650.673 L 1914.008 650.673 L 1914.008 650.673 Q 1914.008 645.839 1916.338 643.203 L 1916.338 643.203 L 1916.338 643.203 Q 1918.668 640.566 1922.977 640.566 L 1922.977 640.566 L 1922.977 640.566 Q 1924.367 640.566 1925.756 640.865 L 1925.756 640.865 L 1925.756 640.865 Q 1927.145 641.164 1927.937 641.568 L 1927.937 641.568 L 1927.04 644.046 L 1927.04 644.046 Q 1926.073 643.66 1924.929 643.405 L 1924.929 643.405 L 1924.929 643.405 Q 1923.786 643.15 1922.907 643.15 L 1922.907 643.15 L 1922.907 643.15 Q 1917.033 643.15 1917.033 650.638 L 1917.033 650.638 L 1917.033 650.638 Q 1917.033 654.189 1918.466 656.087 L 1918.466 656.087 L 1918.466 656.087 Q 1919.9 657.986 1922.713 657.986 L 1922.713 657.986 L 1922.713 657.986 Q 1925.123 657.986 1927.655 656.949 L 1927.655 656.949 L 1927.655 659.533 L 1927.655 659.533 Q 1925.721 660.535 1922.784 660.535 Z  M 1934.971 650.322 L 1935.112 650.322 L 1935.112 650.322 Q 1935.868 649.25 1937.416 647.509 L 1937.416 647.509 L 1943.642 640.917 L 1947.106 640.917 L 1939.298 649.126 L 1947.652 660.183 L 1944.117 660.183 L 1937.311 651.078 L 1935.112 652.976 L 1935.112 660.183 L 1932.228 660.183 L 1932.228 632.832 L 1935.112 632.832 L 1935.112 647.333 L 1935.112 647.333 Q 1935.112 648.3 1934.971 650.322 L 1934.971 650.322 L 1934.971 650.322 Z  M 1797.724 649.197 L 1797.724 660.183 L 1794.734 660.183 L 1794.734 634.484 L 1809.067 634.484 L 1809.067 637.138 L 1797.724 637.138 L 1797.724 646.542 L 1808.381 646.542 L 1808.381 649.197 L 1797.724 649.197 L 1797.724 649.197 Z  M 1812.673 640.917 L 1815.627 640.917 L 1815.627 653.416 L 1815.627 653.416 Q 1815.627 655.771 1816.7 656.931 L 1816.7 656.931 L 1816.7 656.931 Q 1817.773 658.091 1820.059 658.091 L 1820.059 658.091 L 1820.059 658.091 Q 1823.084 658.091 1824.482 656.439 L 1824.482 656.439 L 1824.482 656.439 Q 1825.88 654.787 1825.88 651.042 L 1825.88 651.042 L 1825.88 640.917 L 1828.8 640.917 L 1828.8 660.183 L 1826.39 660.183 L 1825.968 657.599 L 1825.81 657.599 L 1825.81 657.599 Q 1824.913 659.023 1823.321 659.779 L 1823.321 659.779 L 1823.321 659.779 Q 1821.73 660.535 1819.69 660.535 L 1819.69 660.535 L 1819.69 660.535 Q 1816.172 660.535 1814.422 658.865 L 1814.422 658.865 L 1814.422 658.865 Q 1812.673 657.195 1812.673 653.521 L 1812.673 653.521 L 1812.673 640.917 L 1812.673 640.917 Z  M 1837.91 632.832 L 1837.91 660.183 L 1834.99 660.183 L 1834.99 632.832 L 1837.91 632.832 L 1837.91 632.832 Z  M 1847.02 632.832 L 1847.02 660.183 L 1844.1 660.183 L 1844.1 632.832 L 1847.02 632.832 L 1847.02 632.832 Z "
                      fill="rgb(247,127,0)"/>
                <path d=" M 2112.527 598.504 L 2112.527 618.26 L 2102.097 618.26 L 2102.097 568.29 L 2130.754 568.29 L 2130.754 576.971 L 2112.527 576.971 L 2112.527 589.857 L 2129.489 589.857 L 2129.489 598.504 L 2112.527 598.504 L 2112.527 598.504 Z  M 2171.277 618.26 L 2163.993 618.26 L 2161.976 613.065 L 2161.702 613.065 L 2161.702 613.065 Q 2159.069 616.38 2156.282 617.662 L 2156.282 617.662 L 2156.282 617.662 Q 2153.495 618.944 2149.015 618.944 L 2149.015 618.944 L 2149.015 618.944 Q 2143.509 618.944 2140.346 615.799 L 2140.346 615.799 L 2140.346 615.799 Q 2137.183 612.655 2137.183 606.844 L 2137.183 606.844 L 2137.183 606.844 Q 2137.183 600.76 2141.441 597.872 L 2141.441 597.872 L 2141.441 597.872 Q 2145.698 594.984 2154.281 594.676 L 2154.281 594.676 L 2160.916 594.471 L 2160.916 592.796 L 2160.916 592.796 Q 2160.916 586.986 2154.965 586.986 L 2154.965 586.986 L 2154.965 586.986 Q 2150.383 586.986 2144.193 589.754 L 2144.193 589.754 L 2140.74 582.713 L 2140.74 582.713 Q 2147.339 579.261 2155.376 579.261 L 2155.376 579.261 L 2155.376 579.261 Q 2163.07 579.261 2167.174 582.611 L 2167.174 582.611 L 2167.174 582.611 Q 2171.277 585.96 2171.277 592.796 L 2171.277 592.796 L 2171.277 618.26 L 2171.277 618.26 Z  M 2160.916 603.7 L 2160.916 600.555 L 2156.88 600.692 L 2156.88 600.692 Q 2152.332 600.829 2150.109 602.333 L 2150.109 602.333 L 2150.109 602.333 Q 2147.887 603.836 2147.887 606.913 L 2147.887 606.913 L 2147.887 606.913 Q 2147.887 611.322 2152.948 611.322 L 2152.948 611.322 L 2152.948 611.322 Q 2156.573 611.322 2158.744 609.237 L 2158.744 609.237 L 2158.744 609.237 Q 2160.916 607.152 2160.916 603.7 L 2160.916 603.7 L 2160.916 603.7 Z  M 2208.62 610.296 L 2208.62 618.26 L 2178.424 618.26 L 2178.424 612.108 L 2196.138 588.011 L 2179.484 588.011 L 2179.484 580.047 L 2208.004 580.047 L 2208.004 586.815 L 2190.769 610.296 L 2208.62 610.296 L 2208.62 610.296 Z  M 2224.487 599.085 L 2224.487 599.085 L 2224.487 599.085 Q 2224.487 604.759 2226.351 607.665 L 2226.351 607.665 L 2226.351 607.665 Q 2228.215 610.57 2232.421 610.57 L 2232.421 610.57 L 2232.421 610.57 Q 2236.593 610.57 2238.422 607.682 L 2238.422 607.682 L 2238.422 607.682 Q 2240.252 604.793 2240.252 599.085 L 2240.252 599.085 L 2240.252 599.085 Q 2240.252 593.412 2238.405 590.575 L 2238.405 590.575 L 2238.405 590.575 Q 2236.559 587.738 2232.352 587.738 L 2232.352 587.738 L 2232.352 587.738 Q 2228.18 587.738 2226.334 590.558 L 2226.334 590.558 L 2226.334 590.558 Q 2224.487 593.377 2224.487 599.085 Z  M 2250.921 599.085 L 2250.921 599.085 L 2250.921 599.085 Q 2250.921 608.417 2245.997 613.68 L 2245.997 613.68 L 2245.997 613.68 Q 2241.072 618.944 2232.284 618.944 L 2232.284 618.944 L 2232.284 618.944 Q 2226.778 618.944 2222.572 616.534 L 2222.572 616.534 L 2222.572 616.534 Q 2218.366 614.125 2216.109 609.613 L 2216.109 609.613 L 2216.109 609.613 Q 2213.852 605.101 2213.852 599.085 L 2213.852 599.085 L 2213.852 599.085 Q 2213.852 589.72 2218.742 584.525 L 2218.742 584.525 L 2218.742 584.525 Q 2223.632 579.33 2232.489 579.33 L 2232.489 579.33 L 2232.489 579.33 Q 2237.995 579.33 2242.201 581.722 L 2242.201 581.722 L 2242.201 581.722 Q 2246.407 584.115 2248.664 588.592 L 2248.664 588.592 L 2248.664 588.592 Q 2250.921 593.07 2250.921 599.085 Z  M 2280.877 579.33 L 2280.877 579.33 L 2280.877 579.33 Q 2282.998 579.33 2284.4 579.637 L 2284.4 579.637 L 2283.613 589.413 L 2283.613 589.413 Q 2282.348 589.071 2280.535 589.071 L 2280.535 589.071 L 2280.535 589.071 Q 2275.543 589.071 2272.756 591.634 L 2272.756 591.634 L 2272.756 591.634 Q 2269.969 594.198 2269.969 598.812 L 2269.969 598.812 L 2269.969 618.26 L 2259.539 618.26 L 2259.539 580.047 L 2267.438 580.047 L 2268.977 586.473 L 2269.49 586.473 L 2269.49 586.473 Q 2271.268 583.26 2274.295 581.295 L 2274.295 581.295 L 2274.295 581.295 Q 2277.321 579.33 2280.877 579.33 Z  M 2322.905 618.26 L 2315.621 618.26 L 2313.604 613.065 L 2313.33 613.065 L 2313.33 613.065 Q 2310.697 616.38 2307.91 617.662 L 2307.91 617.662 L 2307.91 617.662 Q 2305.123 618.944 2300.643 618.944 L 2300.643 618.944 L 2300.643 618.944 Q 2295.137 618.944 2291.974 615.799 L 2291.974 615.799 L 2291.974 615.799 Q 2288.811 612.655 2288.811 606.844 L 2288.811 606.844 L 2288.811 606.844 Q 2288.811 600.76 2293.068 597.872 L 2293.068 597.872 L 2293.068 597.872 Q 2297.326 594.984 2305.909 594.676 L 2305.909 594.676 L 2312.543 594.471 L 2312.543 592.796 L 2312.543 592.796 Q 2312.543 586.986 2306.593 586.986 L 2306.593 586.986 L 2306.593 586.986 Q 2302.011 586.986 2295.821 589.754 L 2295.821 589.754 L 2292.367 582.713 L 2292.367 582.713 Q 2298.967 579.261 2307.004 579.261 L 2307.004 579.261 L 2307.004 579.261 Q 2314.698 579.261 2318.801 582.611 L 2318.801 582.611 L 2318.801 582.611 Q 2322.905 585.96 2322.905 592.796 L 2322.905 592.796 L 2322.905 618.26 L 2322.905 618.26 Z  M 2312.543 603.7 L 2312.543 600.555 L 2308.508 600.692 L 2308.508 600.692 Q 2303.96 600.829 2301.737 602.333 L 2301.737 602.333 L 2301.737 602.333 Q 2299.515 603.836 2299.515 606.913 L 2299.515 606.913 L 2299.515 606.913 Q 2299.515 611.322 2304.576 611.322 L 2304.576 611.322 L 2304.576 611.322 Q 2308.2 611.322 2310.372 609.237 L 2310.372 609.237 L 2310.372 609.237 Q 2312.543 607.152 2312.543 603.7 L 2312.543 603.7 L 2312.543 603.7 Z  M 1826.37 618.26 L 1816.658 618.26 L 1804.621 579.056 L 1804.313 579.056 L 1804.313 579.056 Q 1804.963 591.019 1804.963 595.018 L 1804.963 595.018 L 1804.963 618.26 L 1795.49 618.26 L 1795.49 568.29 L 1809.921 568.29 L 1821.753 606.502 L 1821.958 606.502 L 1834.509 568.29 L 1848.94 568.29 L 1848.94 618.26 L 1839.057 618.26 L 1839.057 594.608 L 1839.057 594.608 Q 1839.057 592.933 1839.108 590.746 L 1839.108 590.746 L 1839.108 590.746 Q 1839.159 588.558 1839.57 579.125 L 1839.57 579.125 L 1839.262 579.125 L 1826.37 618.26 L 1826.37 618.26 Z  M 1892.267 618.26 L 1884.983 618.26 L 1882.965 613.065 L 1882.692 613.065 L 1882.692 613.065 Q 1880.059 616.38 1877.271 617.662 L 1877.271 617.662 L 1877.271 617.662 Q 1874.484 618.944 1870.005 618.944 L 1870.005 618.944 L 1870.005 618.944 Q 1864.499 618.944 1861.336 615.799 L 1861.336 615.799 L 1861.336 615.799 Q 1858.173 612.655 1858.173 606.844 L 1858.173 606.844 L 1858.173 606.844 Q 1858.173 600.76 1862.43 597.872 L 1862.43 597.872 L 1862.43 597.872 Q 1866.688 594.984 1875.271 594.676 L 1875.271 594.676 L 1881.905 594.471 L 1881.905 592.796 L 1881.905 592.796 Q 1881.905 586.986 1875.955 586.986 L 1875.955 586.986 L 1875.955 586.986 Q 1871.373 586.986 1865.183 589.754 L 1865.183 589.754 L 1861.729 582.713 L 1861.729 582.713 Q 1868.329 579.261 1876.365 579.261 L 1876.365 579.261 L 1876.365 579.261 Q 1884.06 579.261 1888.163 582.611 L 1888.163 582.611 L 1888.163 582.611 Q 1892.267 585.96 1892.267 592.796 L 1892.267 592.796 L 1892.267 618.26 L 1892.267 618.26 Z  M 1881.905 603.7 L 1881.905 600.555 L 1877.87 600.692 L 1877.87 600.692 Q 1873.322 600.829 1871.099 602.333 L 1871.099 602.333 L 1871.099 602.333 Q 1868.876 603.836 1868.876 606.913 L 1868.876 606.913 L 1868.876 606.913 Q 1868.876 611.322 1873.937 611.322 L 1873.937 611.322 L 1873.937 611.322 Q 1877.562 611.322 1879.734 609.237 L 1879.734 609.237 L 1879.734 609.237 Q 1881.905 607.152 1881.905 603.7 L 1881.905 603.7 L 1881.905 603.7 Z  M 1924.343 579.33 L 1924.343 579.33 L 1924.343 579.33 Q 1926.463 579.33 1927.865 579.637 L 1927.865 579.637 L 1927.079 589.413 L 1927.079 589.413 Q 1925.814 589.071 1924.001 589.071 L 1924.001 589.071 L 1924.001 589.071 Q 1919.008 589.071 1916.221 591.634 L 1916.221 591.634 L 1916.221 591.634 Q 1913.434 594.198 1913.434 598.812 L 1913.434 598.812 L 1913.434 618.26 L 1903.004 618.26 L 1903.004 580.047 L 1910.904 580.047 L 1912.443 586.473 L 1912.956 586.473 L 1912.956 586.473 Q 1914.734 583.26 1917.76 581.295 L 1917.76 581.295 L 1917.76 581.295 Q 1920.787 579.33 1924.343 579.33 Z  M 1977.587 618.26 L 1966.234 618.26 L 1963.293 604.896 L 1959.326 588.011 L 1959.087 588.011 L 1952.111 618.26 L 1940.894 618.26 L 1930.02 580.047 L 1940.416 580.047 L 1944.827 596.966 L 1944.827 596.966 Q 1945.887 601.512 1946.981 609.51 L 1946.981 609.51 L 1947.187 609.51 L 1947.187 609.51 Q 1947.323 606.913 1948.383 601.273 L 1948.383 601.273 L 1948.931 598.368 L 1953.65 580.047 L 1965.14 580.047 L 1969.62 598.368 L 1969.62 598.368 Q 1969.756 599.12 1970.047 600.589 L 1970.047 600.589 L 1970.047 600.589 Q 1970.338 602.059 1970.611 603.717 L 1970.611 603.717 L 1970.611 603.717 Q 1970.885 605.375 1971.107 606.964 L 1971.107 606.964 L 1971.107 606.964 Q 1971.329 608.553 1971.364 609.51 L 1971.364 609.51 L 1971.569 609.51 L 1971.569 609.51 Q 1971.877 607.049 1972.663 602.76 L 1972.663 602.76 L 1972.663 602.76 Q 1973.45 598.47 1973.792 596.966 L 1973.792 596.966 L 1978.374 580.047 L 1988.599 580.047 L 1977.587 618.26 L 1977.587 618.26 Z  M 2026.318 618.26 L 2019.034 618.26 L 2017.016 613.065 L 2016.742 613.065 L 2016.742 613.065 Q 2014.109 616.38 2011.322 617.662 L 2011.322 617.662 L 2011.322 617.662 Q 2008.535 618.944 2004.056 618.944 L 2004.056 618.944 L 2004.056 618.944 Q 1998.55 618.944 1995.387 615.799 L 1995.387 615.799 L 1995.387 615.799 Q 1992.224 612.655 1992.224 606.844 L 1992.224 606.844 L 1992.224 606.844 Q 1992.224 600.76 1996.481 597.872 L 1996.481 597.872 L 1996.481 597.872 Q 2000.738 594.984 2009.322 594.676 L 2009.322 594.676 L 2015.956 594.471 L 2015.956 592.796 L 2015.956 592.796 Q 2015.956 586.986 2010.006 586.986 L 2010.006 586.986 L 2010.006 586.986 Q 2005.423 586.986 1999.234 589.754 L 1999.234 589.754 L 1995.78 582.713 L 1995.78 582.713 Q 2002.38 579.261 2010.416 579.261 L 2010.416 579.261 L 2010.416 579.261 Q 2018.11 579.261 2022.214 582.611 L 2022.214 582.611 L 2022.214 582.611 Q 2026.318 585.96 2026.318 592.796 L 2026.318 592.796 L 2026.318 618.26 L 2026.318 618.26 Z  M 2015.956 603.7 L 2015.956 600.555 L 2011.921 600.692 L 2011.921 600.692 Q 2007.373 600.829 2005.15 602.333 L 2005.15 602.333 L 2005.15 602.333 Q 2002.927 603.836 2002.927 606.913 L 2002.927 606.913 L 2002.927 606.913 Q 2002.927 611.322 2007.988 611.322 L 2007.988 611.322 L 2007.988 611.322 Q 2011.613 611.322 2013.784 609.237 L 2013.784 609.237 L 2013.784 609.237 Q 2015.956 607.152 2015.956 603.7 L 2015.956 603.7 L 2015.956 603.7 Z  M 2072.346 593.343 L 2072.346 618.26 L 2061.916 618.26 L 2061.916 595.941 L 2061.916 595.941 Q 2061.916 591.805 2060.446 589.737 L 2060.446 589.737 L 2060.446 589.737 Q 2058.975 587.669 2055.761 587.669 L 2055.761 587.669 L 2055.761 587.669 Q 2051.384 587.669 2049.434 590.592 L 2049.434 590.592 L 2049.434 590.592 Q 2047.485 593.514 2047.485 600.282 L 2047.485 600.282 L 2047.485 618.26 L 2037.055 618.26 L 2037.055 580.047 L 2045.023 580.047 L 2046.425 584.935 L 2047.007 584.935 L 2047.007 584.935 Q 2048.751 582.167 2051.811 580.748 L 2051.811 580.748 L 2051.811 580.748 Q 2054.872 579.33 2058.77 579.33 L 2058.77 579.33 L 2058.77 579.33 Q 2065.439 579.33 2068.892 582.936 L 2068.892 582.936 L 2068.892 582.936 Q 2072.346 586.542 2072.346 593.343 L 2072.346 593.343 L 2072.346 593.343 Z "
                      fill="rgb(255,255,255)"/>
            </g>
            <g>
                <g>
                    <g>
                        <path d=" M 1685.413 580.65 C 1686.455 583.343 1689.039 585.33 1692.061 585.33 L 1730.994 585.33 C 1731.646 585.22 1734.322 585.33 1735.005 585.33 C 1740.623 586.283 1744.901 591.171 1744.901 597.057 C 1744.901 603.418 1739.906 608.612 1733.622 608.935 L 1689.944 609.281 C 1687.05 610.191 1684.952 612.895 1684.952 616.089 L 1684.952 682.698 C 1684.952 689.267 1679.593 694.883 1673.02 694.883 L 1656.359 694.883 L 1656.359 625.88 C 1664.905 608.424 1674.903 593.443 1685.413 580.65 Z "
                              fill-rule="evenodd" fill="rgb(255,255,255)" vector-effect="non-scaling-stroke"
                              stroke-width="0.415" stroke="rgb(255,255,255)" stroke-linejoin="round"
                              stroke-linecap="butt" stroke-miterlimit="2"/>
                        <path d=" M 1656.359 625.88 L 1656.359 534.253 C 1656.359 527.684 1662.734 522.404 1669.307 522.404 L 1756.958 522.404 C 1746.919 527.631 1733.817 535.502 1719.846 546.684 L 1684.952 546.684 L 1684.952 578.692 C 1685.015 579.372 1685.173 580.03 1685.413 580.65 C 1674.903 593.443 1664.905 608.424 1656.359 625.88 Z "
                              fill-rule="evenodd" fill="rgb(255,255,255)" vector-effect="non-scaling-stroke"
                              stroke-width="0.415" stroke="rgb(255,255,255)" stroke-linejoin="round"
                              stroke-linecap="butt" stroke-miterlimit="2"/>
                        <path d=" M 1756.958 522.404 L 1776.442 522.404 L 1776.442 529.001 C 1776.442 536.91 1771.247 543.605 1764.083 545.867 C 1762.4 546.398 1760.608 546.684 1758.749 546.684 L 1719.846 546.684 C 1733.817 535.502 1746.919 527.631 1756.958 522.404 Z "
                              fill-rule="evenodd" fill="rgb(255,255,255)" vector-effect="non-scaling-stroke"
                              stroke-width="0.415" stroke="rgb(255,255,255)" stroke-linejoin="round"
                              stroke-linecap="butt" stroke-miterlimit="2"/>
                    </g>
                    <path d=" M 1648.743 643.124 L 1648.743 695.544 L 1641.126 695.544 C 1638.717 695.544 1636.458 694.905 1634.508 693.788 C 1637.82 675.168 1642.725 658.329 1648.743 643.124 Z "
                          fill-rule="evenodd" fill="rgb(255,255,255)" vector-effect="non-scaling-stroke"
                          stroke-width="0.415" stroke="rgb(255,255,255)" stroke-linejoin="round" stroke-linecap="butt"
                          stroke-miterlimit="2"/>
                    <path d=" M 1632.373 523.703 C 1634.207 522.898 1636.169 522.358 1637.624 522.358 L 1648.743 522.358 L 1648.743 643.124 C 1642.725 658.329 1637.82 675.168 1634.508 693.788 C 1630.499 691.491 1627.798 687.172 1627.798 682.223 L 1627.798 569.515 L 1590.972 612.336 L 1575.237 595.403 C 1603.174 573.054 1621.546 544.614 1632.373 523.703 Z "
                          fill-rule="evenodd" fill="rgb(255,255,255)" vector-effect="non-scaling-stroke"
                          stroke-width="0.415" stroke="rgb(255,255,255)" stroke-linejoin="round" stroke-linecap="butt"
                          stroke-miterlimit="2"/>
                    <path d=" M 1553.537 610.198 L 1553.537 695.544 L 1544.968 695.544 C 1540.516 695.544 1536.575 693.363 1534.154 690.012 L 1510.009 690.012 C 1509.056 691.599 1507.093 692.689 1504.829 692.689 C 1501.631 692.689 1499.035 690.514 1499.035 687.836 C 1499.035 685.157 1501.631 682.982 1504.829 682.982 C 1506.955 682.982 1508.816 683.943 1509.824 685.376 L 1509.824 685.325 L 1532.002 685.325 C 1531.765 684.329 1531.639 683.29 1531.639 682.223 L 1531.639 675.952 L 1497.402 675.952 C 1496.449 677.539 1494.486 678.63 1492.222 678.63 C 1489.025 678.63 1486.428 676.454 1486.428 673.776 C 1486.428 671.097 1489.025 668.922 1492.222 668.922 C 1494.349 668.922 1496.209 669.883 1497.217 671.316 L 1497.217 671.265 L 1531.639 671.265 L 1531.639 661.222 L 1482.043 661.222 C 1481.286 662.81 1479.727 663.9 1477.928 663.9 C 1475.387 663.9 1473.325 661.725 1473.325 659.046 C 1473.325 656.368 1475.387 654.193 1477.928 654.193 C 1479.618 654.193 1481.095 655.154 1481.897 656.587 L 1481.897 656.536 L 1531.639 656.536 L 1531.639 645.154 L 1505.1 645.154 C 1504.343 646.742 1502.783 647.832 1500.984 647.832 C 1498.443 647.832 1496.381 645.657 1496.381 642.977 C 1496.381 640.299 1498.443 638.124 1500.984 638.124 C 1502.674 638.124 1504.152 639.086 1504.953 640.518 L 1504.953 640.467 L 1531.639 640.467 L 1531.639 627.579 L 1513.891 627.579 C 1513.134 629.166 1511.575 630.257 1509.776 630.257 C 1508.128 630.257 1506.682 629.343 1505.868 627.969 C 1512.591 626.654 1519.03 624.942 1525.192 622.893 L 1531.639 622.893 L 1531.639 620.588 C 1539.393 617.621 1546.687 614.115 1553.537 610.198 Z "
                          fill-rule="evenodd" fill="rgb(255,255,255)" vector-effect="non-scaling-stroke"
                          stroke-width="0.415" stroke="rgb(255,255,255)" stroke-linejoin="round" stroke-linecap="butt"
                          stroke-miterlimit="2"/>
                    <path d=" M 1505.868 627.969 C 1505.427 627.224 1505.172 626.344 1505.172 625.403 C 1505.172 622.724 1507.235 620.549 1509.776 620.549 C 1511.465 620.549 1512.944 621.511 1513.744 622.942 L 1513.744 622.893 L 1525.192 622.893 C 1519.03 624.942 1512.591 626.654 1505.868 627.969 Z "
                          fill-rule="evenodd" fill="rgb(255,255,255)" vector-effect="non-scaling-stroke"
                          stroke-width="0.415" stroke="rgb(255,255,255)" stroke-linejoin="round" stroke-linecap="butt"
                          stroke-miterlimit="2"/>
                    <path d=" M 1531.639 620.588 L 1531.639 613.351 L 1459.451 613.351 C 1458.653 614.939 1457.011 616.03 1455.116 616.03 C 1452.44 616.03 1450.268 613.855 1450.268 611.175 C 1450.268 608.497 1452.44 606.321 1455.116 606.321 C 1456.895 606.321 1458.452 607.284 1459.296 608.715 L 1459.296 608.665 L 1531.639 608.665 L 1531.639 596.614 L 1447.912 596.614 C 1447.107 598.201 1445.453 599.291 1443.543 599.291 C 1440.846 599.291 1438.657 597.116 1438.657 594.438 C 1438.657 591.759 1440.846 589.584 1443.543 589.584 C 1445.336 589.584 1446.905 590.545 1447.755 591.978 L 1447.755 591.927 L 1531.639 591.927 L 1531.639 582.554 L 1496.845 582.554 C 1496.04 584.141 1494.386 585.232 1492.476 585.232 C 1489.779 585.232 1487.59 583.056 1487.59 580.378 C 1487.59 577.698 1489.779 575.524 1492.476 575.524 C 1494.269 575.524 1495.838 576.485 1496.688 577.918 L 1496.688 577.867 L 1531.639 577.867 L 1531.639 569.163 L 1425.518 569.163 C 1424.714 570.751 1423.06 571.841 1421.15 571.841 C 1418.453 571.841 1416.263 569.666 1416.263 566.988 C 1416.263 564.308 1418.453 562.133 1421.15 562.133 C 1422.943 562.133 1424.512 563.095 1425.362 564.527 L 1425.362 564.476 L 1531.639 564.476 L 1531.639 554.433 L 1512.602 554.433 C 1511.799 556.021 1510.143 557.112 1508.234 557.112 C 1505.537 557.112 1503.348 554.937 1503.348 552.258 C 1503.348 549.579 1505.537 547.403 1508.234 547.403 C 1510.028 547.403 1511.597 548.366 1512.447 549.797 L 1512.447 549.747 L 1531.639 549.747 L 1531.639 541.713 L 1466.756 541.713 C 1465.965 543.301 1464.336 544.39 1462.455 544.39 C 1459.801 544.39 1457.645 542.216 1457.645 539.537 C 1457.645 536.858 1459.801 534.683 1462.455 534.683 C 1464.222 534.683 1465.766 535.645 1466.603 537.077 L 1466.603 537.026 L 1531.639 537.026 L 1531.639 527.486 L 1512.602 527.486 C 1511.799 529.073 1510.143 530.163 1508.234 530.163 C 1505.537 530.163 1503.348 527.988 1503.348 525.31 C 1503.348 522.631 1505.537 520.456 1508.234 520.456 C 1510.028 520.456 1511.597 521.417 1512.447 522.85 L 1512.447 522.799 L 1531.639 522.799 L 1531.639 522.358 L 1541.784 522.358 C 1544.481 522.358 1549.003 524.344 1550.828 526.33 L 1553.537 529.276 L 1589.069 567.929 L 1627.798 526.734 L 1628 526.52 C 1628.96 525.499 1630.607 524.478 1632.373 523.703 C 1621.546 544.614 1603.174 573.054 1575.237 595.403 L 1553.537 572.052 L 1553.537 610.198 C 1546.687 614.115 1539.393 617.621 1531.639 620.588 Z "
                          fill-rule="evenodd" fill="rgb(255,255,255)" vector-effect="non-scaling-stroke"
                          stroke-width="0.415" stroke="rgb(255,255,255)" stroke-linejoin="round" stroke-linecap="butt"
                          stroke-miterlimit="2"/>
                </g>
            </g>
        </g>
    </g>
</svg>